<svg xmlns="http://www.w3.org/2000/svg" viewBox="0 0 201 201"><defs><style>.cls-1{fill:none;stroke:#d99c16; }</style></defs><title>Asset 1</title><g id="Layer_2" data-name="Layer 2"><g id="Layer_1-2" data-name="Layer 1"><path class="cls-1" d="M.5.5v200h200V.5Zm174.64,119a77,77,0,0,1-22.86,38q-2.78,2.52-5.78,4.76a76.57,76.57,0,0,1-38.77,14.9l-.23,0q-1.48.13-3,.21c-1.32.07-2.66.11-4,.11s-2.68,0-4-.1l-1.27-.08-.73,0A77,77,0,1,1,177.34,95.5c.11,1.65.16,3.32.16,5A77.26,77.26,0,0,1,175.14,119.5Z"/><path class="cls-1" d="M177.5,100.5c0,.34,0,.67,0,1s0,.41,0,.61c0,.54,0,1.08,0,1.61,0,.33,0,.67-.05,1,0,.49-.06,1-.09,1.45s-.07,1-.12,1.46-.08.86-.13,1.29c0,.21,0,.42-.07.63s-.05.42-.08.63c-.2,1.63-.45,3.24-.76,4.84-.13.69-.27,1.38-.42,2.06-.1.43-.19.86-.3,1.28s-.15.63-.23.95c0,.06,0,.12,0,.18H141.83a15.33,15.33,0,0,0-15.33,15.33V157.5h18.11a1.89,1.89,0,0,1,1.89,1.89v2.87c-.34.26-.69.51-1,.76l-.92.66-1.49,1-1,.65c-.68.44-1.37.87-2.07,1.28l-1.05.62c-.37.22-.75.43-1.13.64l-.81.44c-.69.38-1.4.74-2.11,1.1l-.14.07q-.78.39-1.56.75l-1,.47-.38.17-1,.43q-2.4,1-4.88,1.9c-.83.29-1.66.57-2.5.82l-1.12.35-.26.07-.15.05-1.35.37-.22.06-.13,0-1.32.34-1.46.34c-.48.11-1,.22-1.46.31s-1,.21-1.55.3-.88.16-1.33.23-1,.17-1.57.24c-.81.12-1.62.23-2.44.31-.55.07-1.11.12-1.66.17h0l-1.36.11-.24,0-.51,0-.76,0V100.5h21v-31h-50v31h21v76.89l-.76,0-.75,0-.55,0-.54,0-.4,0-.23,0q-.85-.07-1.71-.18l-.57-.07-1.51-.2c-.53-.07-1-.15-1.57-.24-1.06-.17-2.1-.36-3.14-.58l-1.46-.32c-.5-.11-1-.23-1.51-.36l-1.36-.35-1.62-.45c-1.27-.38-2.52-.78-3.76-1.21-.83-.29-1.65-.59-2.46-.91-.54-.21-1.08-.42-1.61-.65l-.58-.24L69,170.78h0c-.59-.27-1.18-.54-1.76-.83l-1.75-.86c-.5-.25-1-.51-1.48-.78-.65-.35-1.3-.71-1.94-1.08l-.35-.2c-.63-.37-1.25-.75-1.87-1.13l-.23-.15-.25-.16-1.69-1.09-.08-.06c-.69-.46-1.37-.93-2-1.42-.35-.25-.7-.5-1-.76v-2.87a1.89,1.89,0,0,1,1.89-1.89H74.5V134.83A15.33,15.33,0,0,0,59.17,119.5H25.86c0-.13-.07-.26-.09-.39-.16-.63-.31-1.26-.45-1.9s-.22-1-.32-1.53-.15-.77-.22-1.16a1.29,1.29,0,0,1,0-.19c0-.07,0-.15,0-.22a.68.68,0,0,1,0-.14c0-.2-.08-.4-.11-.6,0,0,0-.05,0-.08s0-.09,0-.13,0-.09,0-.13c-.14-.84-.27-1.69-.38-2.54,0-.31-.08-.62-.11-.93s-.1-.88-.14-1.32c0-.26-.06-.52-.08-.78q-.07-.81-.12-1.62a.37.37,0,0,1,0-.11c0-.28,0-.56-.05-.84,0-.52-.06-1-.07-1.56,0-.23,0-.47,0-.71s0-.26,0-.39c0-.57,0-1.15,0-1.73,0-1.68.05-3.35.16-5H60.5v-26H49.67a2.17,2.17,0,0,1-2.17-2.17V44.64c.45-.43.9-.85,1.36-1.26s.8-.72,1.21-1.07,1-.91,1.59-1.35,1-.78,1.45-1.16l1.47-1.12,1.51-1.09a0,0,0,0,1,0,0c.25-.18.5-.36.76-.53l.76-.52,1.55-1,1.58-1,1.61-.94c.54-.31,1.09-.61,1.64-.91s.86-.46,1.3-.68c.25-.14.51-.27.77-.39.42-.22.84-.42,1.26-.62s1-.48,1.5-.7l.11-.05,1.86-.81.7-.28,1-.4V50.5h56V28.76l1,.4.5.2.81.34.78.34.38.17q.36.15.72.33c.33.14.66.3,1,.46s.91.43,1.36.66.61.31.91.47.84.43,1.25.66l.81.44.64.37,1.38.8c.58.35,1.15.7,1.71,1.06s1,.64,1.49,1l.16.11q.78.51,1.53,1.05a77.38,77.38,0,0,1,8.59,7V67.33a2.17,2.17,0,0,1-2.17,2.17H140.5v26h36.84c0,.25,0,.49,0,.74,0,.41.05.83.06,1.24l0,1c0,.26,0,.51,0,.77C177.5,99.66,177.5,100.08,177.5,100.5Z"/><path class="cls-1" d="M110,83.12v4.76c0,2-2,3.62-4.59,3.62H95.59c-2.54,0-4.59-1.62-4.59-3.62V83.12c0-2,2-3.62,4.59-3.62h9.82C108,79.5,110,81.12,110,83.12Z"/><rect class="cls-1" x="139.5" y="133.4" width="18" height="11.89" rx="3.63"/><rect class="cls-1" x="45.5" y="133.4" width="18" height="11.89" rx="3.63"/></g></g></svg>
